<svg width="16" height="16" viewBox="0 0 16 16" fill="none" xmlns="http://www.w3.org/2000/svg">
<g id="Status icons">
<path id="Vector" fill-rule="evenodd" clip-rule="evenodd" d="M15.1938 9.43118L13.8858 9.17243C13.9607 8.7943 14.0001 8.40242 14.0001 8C14.0001 7.59758 13.9607 7.20569 13.8858 6.82757L15.1938 6.56881C15.2854 7.03169 15.3334 7.51024 15.3334 8C15.3334 8.48976 15.2854 8.9683 15.1938 9.43118ZM14.0982 3.92548L12.9903 4.66724C12.5518 4.01236 11.9877 3.44824 11.3328 3.00981L12.0746 1.90185C12.8743 2.43724 13.5628 3.12577 14.0982 3.92548ZM9.43127 0.806247C8.96839 0.714675 8.48984 0.666664 8.00008 0.666664C7.51032 0.666664 7.03178 0.714675 6.56889 0.806247L6.82765 2.11423C7.20577 2.03943 7.59766 2 8.00008 2C8.4025 2 8.79439 2.03943 9.17251 2.11423L9.43127 0.806247ZM3.92557 1.90185L4.66733 3.00981C4.01244 3.44824 3.44833 4.01236 3.00989 4.66724L1.90193 3.92548C2.43733 3.12577 3.12586 2.43724 3.92557 1.90185ZM0.806331 6.56881C0.714759 7.03169 0.666748 7.51024 0.666748 8C0.666748 8.48976 0.714759 8.9683 0.806331 9.43118L2.11431 9.17243C2.03951 8.7943 2.00008 8.40242 2.00008 8C2.00008 7.59758 2.03951 7.20569 2.11431 6.82757L0.806331 6.56881ZM1.90194 12.0745L3.00989 11.3328C3.44833 11.9876 4.01244 12.5518 4.66733 12.9902L3.92557 14.0981C3.12586 13.5627 2.43733 12.8742 1.90194 12.0745ZM6.56889 15.1937L6.82765 13.8858C7.20577 13.9606 7.59766 14 8.00008 14C8.4025 14 8.79439 13.9606 9.17251 13.8858L9.43127 15.1937C8.96839 15.2853 8.48984 15.3333 8.00008 15.3333C7.51032 15.3333 7.03178 15.2853 6.56889 15.1937ZM12.0746 14.0981L11.3328 12.9902C11.9877 12.5518 12.5518 11.9876 12.9903 11.3328L14.0982 12.0745C13.5628 12.8742 12.8743 13.5627 12.0746 14.0981Z" fill="#344054"/>
</g>
</svg>
