<svg width="324" height="208" viewBox="0 0 324 208" fill="none" xmlns="http://www.w3.org/2000/svg">
<g clip-path="url(#clip0_200_2129)">
<path d="M126.471 63.6657C126.54 62.663 126.361 61.6587 125.95 60.7417C125.539 59.8246 124.908 59.0229 124.113 58.4073C123.837 58.3379 118.994 63.1469 111.93 58.3379C111.418 58.5637 110.957 58.8911 110.574 59.3001C110.192 59.7092 109.896 60.1916 109.706 60.7181C109.515 61.2445 109.433 61.8042 109.464 62.3633C109.496 62.9224 109.641 63.4693 109.89 63.9709C116.636 69.9209 121.237 66.9459 124.038 65.7695C124.488 65.5966 124.834 66.2542 124.488 66.566C120.337 70.1633 112.275 68.814 109.231 64.1779C100.351 65.7486 82.0166 83.2475 78.7993 87.433C78.8305 89.9508 78.5278 92.4617 77.8993 94.9C77.7958 95.2812 77.1382 95.2118 77.1736 94.7965C78.4534 83.5187 75.3736 72.068 74.509 71.8951C73.6104 71.7222 72.3292 73.7972 66.2757 71.6527C64.8923 71.168 60.3257 89.7805 65.9639 102.511C66.3643 103.56 67.0621 104.469 67.9718 105.126C68.8815 105.784 69.9634 106.162 71.0847 106.213C74.7527 106.559 90.0076 100.228 93.7477 97.9444C93.2643 100.47 94.6817 112.717 95.0577 115.796C95.8529 121.885 98.275 134.235 98.6903 134.478C110.002 141.501 124.602 136.899 124.602 136.899C124.602 136.899 127.404 129.599 138.994 117.733C140.55 116.142 140.304 95.3847 139.824 91.9263C142.072 93.7943 144.252 95.8353 146.605 97.6353C146.327 94.7284 151.482 84.9034 151.482 83.6183C151.449 79.0267 126.437 63.8386 126.471 63.6657ZM123.879 62.0059C122.826 62.9822 121.552 63.6899 120.167 64.0692C118.782 64.4485 117.326 64.488 115.922 64.1844C115.473 64.1163 115.68 63.4233 116.095 63.4927C118.705 63.7621 121.321 63.0468 123.431 61.4871C123.773 61.2788 124.117 61.7622 123.879 62.0059Z" fill="#68BA00"/>
<path d="M162.554 151.745C162.005 151.587 161.424 151.573 160.867 151.703C160.311 151.834 159.797 152.104 159.374 152.488C158.951 152.873 158.634 153.359 158.452 153.901C158.269 154.443 158.229 155.022 158.333 155.584C158.454 156.095 158.7 156.569 159.048 156.962C159.397 157.355 159.837 157.656 160.33 157.838C160.823 158.019 161.353 158.076 161.873 158.003C162.394 157.93 162.888 157.729 163.311 157.418C165.875 155.723 163.765 152.162 162.554 151.745Z" fill="#68BA00"/>
<path d="M190.542 136.522C170.823 136.539 151.137 136.452 131.418 136.556C131.304 136.557 131.192 136.584 131.091 136.635C130.989 136.685 130.9 136.758 130.83 136.848C130.76 136.938 130.712 137.042 130.688 137.153C130.664 137.264 130.666 137.379 130.692 137.49C132.63 149.115 134.428 160.738 136.712 172.293C136.815 172.743 137.612 172.638 137.542 172.189C136.054 160.772 134.083 149.395 132.284 138.044C151.41 138.147 170.511 138.078 189.642 138.113C187.878 149.288 185.974 160.496 184.795 171.74C177.254 171.67 142.9 171.255 139.406 171.913C139.061 171.982 139.164 172.465 139.475 172.501C143.107 172.881 177.53 173.296 184.968 172.674C185.049 172.74 185.144 172.785 185.247 172.805C185.349 172.825 185.455 172.819 185.554 172.788C185.654 172.757 185.744 172.702 185.817 172.628C185.89 172.553 185.943 172.462 185.972 172.362C188.359 160.877 189.569 149.115 191.368 137.525C191.39 137.403 191.386 137.278 191.355 137.158C191.324 137.039 191.267 136.927 191.189 136.831C191.11 136.736 191.011 136.658 190.9 136.605C190.788 136.551 190.666 136.523 190.542 136.522Z" fill="#191919"/>
<path d="M187.186 174.231C187.155 174.126 187.092 174.034 187.004 173.969C186.917 173.904 186.811 173.868 186.702 173.868C186.593 173.868 186.487 173.904 186.4 173.969C186.312 174.034 186.249 174.126 186.218 174.231C186.111 174.673 186.053 175.126 186.045 175.58C182.377 175.857 146.606 175.449 138.476 175.511C138.414 174.914 138.299 174.324 138.13 173.748C138.109 173.677 138.066 173.615 138.007 173.572C137.948 173.528 137.877 173.504 137.803 173.504C137.729 173.504 137.658 173.528 137.599 173.572C137.54 173.615 137.497 173.677 137.475 173.748C137.36 174.538 137.314 175.336 137.337 176.134C137.342 176.298 137.409 176.454 137.525 176.569C137.641 176.685 137.796 176.752 137.96 176.757C146.228 177.311 182.725 177.241 186.704 176.86C186.876 176.854 187.039 176.783 187.16 176.661C187.282 176.54 187.353 176.377 187.359 176.205C187.372 175.543 187.315 174.881 187.186 174.231Z" fill="#191919"/>
<path d="M125.607 172.645C123.124 174.834 114.709 184.926 112.737 187.417C108.966 186.137 93.5709 182.469 89.8348 181.57C96.6848 176.139 102.255 171.157 108.83 166.348C108.953 166.253 109.038 166.118 109.071 165.967C114.145 167.473 119.296 168.709 124.501 169.669C124.951 169.704 124.951 169.116 124.605 168.977C119.43 167.35 114.162 166.033 108.83 165.034C108.729 165.016 108.626 165.034 108.538 165.085C108.449 165.135 108.381 165.215 108.345 165.31C108.933 164.826 100.595 171.537 89.0409 181.467C88.9717 181.49 88.9107 181.533 88.8653 181.591C88.8199 181.648 88.7918 181.717 88.7845 181.79C88.7772 181.863 88.7909 181.936 88.8241 182.002C88.8572 182.067 88.9084 182.121 88.9715 182.158C93.3063 184.104 112.38 189.109 113.015 188.315C115.437 185.858 124.466 175.792 126.265 173.093C126.472 172.71 125.919 172.366 125.607 172.645Z" fill="#191919"/>
<path d="M97.6187 179.524C100.192 180.048 110.246 183.502 112.772 184.09C112.869 184.115 112.971 184.104 113.061 184.059C113.15 184.014 113.22 183.938 113.258 183.845C113.296 183.753 113.299 183.649 113.267 183.555C113.235 183.46 113.17 183.38 113.083 183.329C108.413 180.942 102.843 180.042 97.7563 178.935C97.417 178.866 97.2402 179.445 97.6187 179.524Z" fill="#191919"/>
<path d="M100.699 175.892C103.55 177.41 106.66 178.384 109.869 178.764C110.353 178.798 110.421 178.109 109.972 177.967C106.918 177.237 103.904 176.348 100.942 175.304C100.594 175.2 100.351 175.753 100.699 175.892Z" fill="#191919"/>
<path d="M106.194 171.638C109.827 173.16 113.561 174.432 117.368 175.443C117.784 175.547 118.095 174.919 117.68 174.716C113.987 173.265 110.209 172.04 106.367 171.048C106.291 171.031 106.211 171.044 106.144 171.084C106.076 171.123 106.027 171.187 106.005 171.262C105.983 171.337 105.99 171.418 106.025 171.487C106.06 171.557 106.121 171.611 106.194 171.638Z" fill="#191919"/>
<path d="M157.022 103.277C157.955 104.766 160.166 106.29 161.934 105.215C162.02 105.158 162.085 105.075 162.121 104.979C162.157 104.883 162.162 104.778 162.135 104.678C162.108 104.579 162.051 104.491 161.972 104.426C161.892 104.361 161.795 104.322 161.692 104.315C160.931 104.281 158.821 104.839 157.437 102.932C157.262 102.655 156.845 103.001 157.022 103.277Z" fill="#191919"/>
<path d="M161.101 101.306C161.387 101.456 161.705 101.536 162.028 101.536C162.35 101.537 162.669 101.459 162.955 101.309C163.241 101.159 163.486 100.942 163.669 100.676C163.853 100.41 163.968 100.104 164.007 99.7834C164.009 97.1616 163.588 94.5566 162.761 92.0688C162.554 91.6535 162 91.8959 161.966 92.2758C161.827 93.5858 163.695 101.202 161.311 100.791C161.247 100.781 161.182 100.793 161.126 100.824C161.07 100.856 161.027 100.906 161.002 100.965C160.978 101.025 160.975 101.091 160.993 101.153C161.011 101.214 161.049 101.268 161.101 101.306Z" fill="#191919"/>
<path d="M166.29 93.1058C166.253 93.7329 166.36 94.3601 166.602 94.9398C166.641 95.009 166.7 95.0648 166.771 95.0998C166.842 95.1349 166.922 95.1476 167.001 95.1363C167.079 95.1249 167.153 95.0901 167.211 95.0363C167.269 94.9825 167.31 94.9123 167.328 94.835C167.422 94.2102 167.377 93.5724 167.197 92.9669C167.155 92.4482 166.256 92.5516 166.29 93.1058Z" fill="#191919"/>
<path d="M157.642 95.0425C157.678 95.098 157.725 95.1453 157.781 95.1811C157.836 95.2169 157.899 95.2405 157.964 95.2503C158.03 95.2601 158.096 95.2558 158.16 95.2379C158.224 95.2199 158.283 95.1885 158.333 95.146C158.679 94.7307 158.576 94.005 158.576 93.4862C158.576 93.0015 157.815 92.7592 157.642 93.4862C157.571 94.0026 157.571 94.5261 157.642 95.0425Z" fill="#191919"/>
<path d="M156.258 92.3098C156.899 91.5303 157.734 90.9335 158.679 90.5793C158.74 90.5403 158.787 90.4828 158.812 90.4154C158.838 90.3479 158.842 90.274 158.822 90.2044C158.803 90.1348 158.762 90.0733 158.705 90.0287C158.648 89.9842 158.578 89.9591 158.506 89.957C157.876 89.9559 157.258 90.1385 156.73 90.4826C156.202 90.8267 155.785 91.3174 155.531 91.8945C155.501 91.9424 155.48 91.996 155.471 92.0521C155.461 92.1082 155.463 92.1656 155.477 92.2208C155.49 92.2761 155.515 92.328 155.549 92.3734C155.584 92.4188 155.627 92.4567 155.676 92.4849C155.726 92.5131 155.78 92.531 155.837 92.5374C155.893 92.5439 155.95 92.5387 156.005 92.5223C156.059 92.506 156.11 92.4787 156.153 92.4421C156.197 92.4056 156.233 92.3606 156.258 92.3098Z" fill="#191919"/>
<path d="M165.634 90.062C166.74 90.4433 167.882 92.3807 168.297 92.8641C168.353 92.9172 168.425 92.9505 168.501 92.9593C168.578 92.968 168.655 92.9517 168.721 92.9126C168.788 92.8736 168.84 92.814 168.869 92.7429C168.899 92.6717 168.904 92.5929 168.885 92.5183C168.66 91.8215 168.283 91.1836 167.78 90.6511C167.277 90.1186 166.662 89.7048 165.98 89.4398C165.599 89.1974 165.219 89.8197 165.634 90.062Z" fill="#191919"/>
<path d="M155.877 116.77C159.406 125.591 167.258 120.16 167.985 117.53C168.158 116.943 167.397 116.735 167.085 117.15C165.737 118.88 161.24 123.688 156.569 116.597C156.292 116.216 155.74 116.314 155.877 116.77Z" fill="#191919"/>
<path d="M230.603 172.918C230.301 170.944 228.354 168.525 226.383 169.355C226.349 168.663 226.349 167.97 226.313 167.279C227.144 165.314 222.784 161.847 212.199 164.58C211.675 164.719 211.921 165.584 212.44 165.411C218.253 163.37 226.625 165.272 224.272 167.452C222.962 168.663 214.793 170.22 211.16 166.273C211.022 165.823 210.572 165.857 210.469 166.169C210.469 166.169 209.814 178.035 210.435 180.215C210.435 183.508 221.167 186.866 226.244 181.425C226.556 181.08 226.003 180.561 225.621 180.803C223.442 182.113 216.834 185.266 211.333 180.215C211.857 178.001 211.403 169.698 211.299 167.934C214.171 170.7 223.476 170.044 225.379 168.488C225.248 170.009 224.964 177.413 225.691 179.281C225.864 179.696 226.556 179.835 226.659 179.281C226.728 178.939 226.763 178.591 226.762 178.242C227.368 178.152 227.948 177.942 228.471 177.624C228.994 177.305 229.447 176.886 229.805 176.39C230.163 175.894 230.418 175.331 230.555 174.735C230.692 174.139 230.709 173.521 230.603 172.918ZM229.293 173.852C229.254 174.55 228.99 175.216 228.542 175.752C228.093 176.288 227.484 176.665 226.804 176.827C226.735 175.648 226.459 171.257 226.423 170.22C228.251 169.701 229.393 172.364 229.288 173.852H229.293Z" fill="#191919"/>
<path d="M183.623 92.3108C181.8 94.529 180.563 97.1695 180.026 99.9901C179.921 100.514 180.681 100.717 180.787 100.198C181.227 98.5423 181.878 96.9495 182.723 95.4588C182.302 100.773 182.418 106.116 183.069 111.407C183.104 111.891 183.865 111.931 183.865 111.407C183.969 105.491 183.21 99.6796 183.83 93.7977C183.837 93.7547 183.835 93.7106 183.823 93.6686C183.811 93.6267 183.789 93.588 183.76 93.5553C183.899 93.2789 184.038 93.0313 184.177 92.7602C184.418 92.4143 183.894 91.9951 183.623 92.3108Z" fill="#191919"/>
<path d="M208.392 43.7046C208.363 43.981 208.151 45.122 208.358 45.3643C208.396 45.4273 208.448 45.481 208.51 45.5214C208.571 45.5617 208.641 45.5879 208.714 45.5978C208.787 45.6077 208.861 45.6012 208.931 45.5787C209.002 45.5562 209.066 45.5183 209.119 45.4678C209.362 45.2268 209.362 44.0845 209.362 43.8081C209.328 43.1164 208.434 43.3247 208.392 43.7046Z" fill="#191919"/>
<path d="M200.54 44.0503C200.437 44.6559 200.413 45.2726 200.471 45.8843C200.54 46.2655 201.093 46.2301 201.197 45.8843C201.302 45.279 201.337 44.6636 201.301 44.0503C201.296 43.9532 201.253 43.862 201.182 43.7953C201.112 43.7286 201.018 43.6914 200.921 43.6914C200.824 43.6914 200.73 43.7286 200.659 43.7953C200.588 43.862 200.546 43.9532 200.54 44.0503Z" fill="#191919"/>
<path d="M199.883 43.2159C200.558 42.6572 201.394 42.3299 202.269 42.2819C202.651 42.2124 202.546 41.7277 202.269 41.6269C201.719 41.4901 201.14 41.5339 200.617 41.7519C200.093 41.9699 199.654 42.3504 199.364 42.8373C199.122 43.1163 199.644 43.4648 199.883 43.2159Z" fill="#191919"/>
<path d="M207.909 40.4525C208.624 41.2478 209.386 41.999 210.192 42.7018C210.25 42.7329 210.315 42.7464 210.381 42.7408C210.446 42.7351 210.508 42.7105 210.559 42.67C210.611 42.6295 210.649 42.5748 210.67 42.5127C210.69 42.4506 210.692 42.3838 210.676 42.3206C210.221 41.2517 209.363 40.4047 208.289 39.9626C207.981 39.8303 207.629 40.2141 207.909 40.4525Z" fill="#191919"/>
<path d="M256.342 51.3143C256.311 50.9685 255.719 50.8309 255.687 51.2108C255.42 53.034 255.258 54.871 255.203 56.7128C254.839 56.3003 254.42 55.9397 253.958 55.6412C254.728 52.6355 254.881 49.5049 254.407 46.4385C254.304 45.9145 253.507 46.0573 253.473 46.576C253.404 49.4829 253.612 52.3545 253.266 55.2941C252.805 55.0837 252.315 54.9441 251.812 54.8801C252.274 51.0827 251.944 47.2308 250.844 43.567C250.741 43.2552 250.189 43.2906 250.222 43.6364C250.602 47.3725 251.017 51.0746 251.051 54.8448C250.561 54.8736 249.319 55.1303 249.149 55.4683C249.159 52.2822 248.412 49.1393 246.969 46.2983C246.919 46.2173 246.841 46.1571 246.75 46.1285C246.659 46.1 246.56 46.105 246.473 46.1427C246.385 46.1804 246.314 46.2483 246.271 46.334C246.229 46.4197 246.22 46.5177 246.243 46.6101C247.669 50.5796 248.349 54.7783 248.249 58.9948C248.249 59.583 249.115 59.549 249.149 58.9948C249.183 57.9914 249.219 56.9879 249.183 55.9818C249.22 56.0388 249.272 56.0848 249.333 56.1152C249.393 56.1456 249.461 56.1593 249.529 56.1548C250.554 55.9672 251.61 56.0504 252.593 56.3962C253.576 56.7419 254.451 57.3383 255.133 58.1263C255.099 59.4062 254.787 69.4395 254.787 73.1756C254.787 73.5214 255.311 73.5214 255.341 73.1756C255.651 69.4434 256.661 54.909 256.342 51.3143Z" fill="#191919"/>
<path d="M253.09 75.0479C251.911 74.8396 249.319 74.1479 248.697 72.7986C249.588 70.3243 249.744 67.645 249.146 65.084C249.203 65.0297 249.245 64.9616 249.268 64.8863C249.291 64.811 249.293 64.7311 249.276 64.6544C249.259 64.5777 249.221 64.5068 249.168 64.4487C249.115 64.3906 249.048 64.3473 248.974 64.3229C244.407 62.5583 245.133 57.093 241.915 54.0826C241.674 53.8403 241.189 54.152 241.391 54.4638C243.641 57.4388 243.709 64.7382 248.45 65.1534C248.726 67.4511 248.609 69.7791 248.104 72.0375C247.918 71.7446 247.71 71.4669 247.48 71.2069C247.341 71.0694 247.168 71.034 246.825 71.4493C242.502 76.8805 243.262 90.3041 243.711 94.3166C243.782 94.7673 244.474 94.7673 244.438 94.3166C244.058 90.477 244.962 77.7111 247.276 72.7986C247.931 74.7361 251.599 76.1548 253.019 75.8116C253.471 75.7029 253.505 75.0806 253.09 75.0479Z" fill="#191919"/>
<path d="M260.563 36.5766C260.245 36.2373 259.767 36.7154 260.039 37.1006C266.786 46.1644 264.538 56.0235 263.183 59.8631C263.044 60.2784 263.666 60.5181 263.875 60.1749C265.889 56.3967 266.654 52.077 266.059 47.8369C265.464 43.5967 263.54 39.6544 260.563 36.5766Z" fill="#68BA00"/>
<path d="M268.347 37.9618C268.106 37.6487 267.586 37.9618 267.823 38.2723C271.006 42.7354 271.767 47.6139 271.698 52.9443C271.702 53.0403 271.74 53.1319 271.804 53.2029C271.869 53.2738 271.957 53.3196 272.053 53.332C272.148 53.3443 272.245 53.3226 272.326 53.2706C272.406 53.2186 272.466 53.1396 272.495 53.0477C273.571 47.7868 271.543 42.1014 268.347 37.9618Z" fill="#68BA00"/>
<path d="M242.123 84.9417C240.895 80.0947 232.61 71.7251 217.422 67.0549C217.433 66.4702 217.277 65.8944 216.973 65.3951C216.523 64.5987 213.028 61.5896 211.852 61.6237C211.403 61.6931 211.197 62.4883 211.023 62.766C210.904 62.1722 210.693 61.6004 210.399 61.0708C210.345 60.9859 210.265 60.9207 210.171 60.8846C210.077 60.8486 209.974 60.8437 209.878 60.8707C209.781 60.8978 209.695 60.9552 209.633 61.0347C209.571 61.1141 209.537 61.2113 209.535 61.3119C209.651 62.2314 209.933 63.1224 210.365 63.9424C209.58 65.2919 208.444 66.4037 207.078 67.1597C206.733 67.3326 206.975 67.8514 207.355 67.782C209.844 67.1938 211.957 63.8035 212.202 62.804C213.499 63.611 214.725 64.525 215.87 65.5366C217.738 67.1636 213.241 73.0442 210.68 75.5005C210.749 72.4875 208.223 69.5505 205.872 68.0335C204.938 67.7911 201.651 72.9106 201.097 75.6446C197.272 73.4646 194.398 69.9366 193.036 65.7502C194.264 63.961 196.054 62.6334 198.122 61.9787C198.191 64.9196 201.685 67.8252 204.35 68.2405C204.765 68.3099 205.111 67.6876 204.66 67.5147C202.937 66.6844 201.387 65.5339 200.093 64.1244C200.399 63.5047 200.598 62.8377 200.682 62.1516C200.676 62.0648 200.644 61.9818 200.589 61.9144C200.534 61.847 200.459 61.7984 200.375 61.7756C200.291 61.7528 200.202 61.7568 200.121 61.7871C200.039 61.8174 199.969 61.8725 199.921 61.9446C199.715 62.3138 199.563 62.711 199.471 63.1236C199.202 62.6175 198.959 62.0976 198.744 61.566C198.7 61.4685 198.624 61.3884 198.529 61.3384C198.434 61.2884 198.326 61.2713 198.22 61.2896C195.799 61.6708 192.028 63.7786 192.304 66.0292C186.769 66.5532 180.265 72.7102 179.021 75.059C178.978 75.1375 178.965 75.2286 178.984 75.3159C179.003 75.4031 179.052 75.4809 179.123 75.535C179.194 75.5892 179.282 75.6163 179.371 75.6114C179.46 75.6065 179.544 75.57 179.609 75.5083C181.788 73.7097 184.174 69.7312 192.478 66.7903C193.516 70.9076 197.217 75.4743 201.161 76.6153C201.225 76.6317 201.292 76.6318 201.355 76.6156C201.419 76.5995 201.478 76.5676 201.526 76.5229C201.574 76.4781 201.611 76.422 201.631 76.3597C201.652 76.2973 201.657 76.2307 201.646 76.166C201.68 76.1306 203.306 70.8382 205.838 68.9007C210.377 72.1561 209.007 77.0699 210.474 76.5812C213.83 75.5424 217.155 69.0736 217.358 67.7938C234.967 74.3673 240.021 83.0854 241.402 85.2993C241.463 85.3664 241.545 85.4117 241.634 85.4284C241.723 85.4451 241.816 85.4323 241.897 85.392C241.979 85.3516 242.045 85.2859 242.086 85.2046C242.126 85.1234 242.14 85.0311 242.123 84.9417Z" fill="#191919"/>
<path d="M67.452 69.8577C66.2259 66.0691 61.916 49.1007 61.1208 47.3715C60.9138 46.9562 60.3256 47.1986 60.2903 47.5785C60.2208 49.3771 65.2381 66.3298 66.725 70.0306C66.894 70.4812 67.5961 70.3057 67.452 69.8577Z" fill="#191919"/>
<path d="M62.7465 44.3605C62.6822 47.2777 63.3736 50.1618 64.7535 52.7328C64.7739 52.7804 64.8034 52.8236 64.8405 52.8598C64.8776 52.896 64.9214 52.9246 64.9695 52.9439C65.0176 52.9632 65.0691 52.9728 65.1209 52.9722C65.1727 52.9716 65.2239 52.9608 65.2716 52.9404C65.3192 52.92 65.3624 52.8904 65.3986 52.8534C65.4348 52.8163 65.4634 52.7725 65.4827 52.7243C65.502 52.6762 65.5116 52.6248 65.511 52.573C65.5104 52.5211 65.4996 52.4699 65.4792 52.4223C64.5765 49.7583 63.8716 47.0313 63.3701 44.2636C63.3347 43.9112 62.7492 44.0147 62.7465 44.3605Z" fill="#191919"/>
<path d="M66.5181 42.0771C66.0891 45.0694 66.4466 48.1219 67.5556 50.934C67.7285 51.3493 68.2826 51.0375 68.2106 50.6576C67.635 47.8427 67.2993 44.9841 67.2071 42.1125C67.2151 42.0643 67.2127 42.0149 67.2003 41.9677C67.1878 41.9205 67.1656 41.8764 67.1349 41.8383C67.1042 41.8003 67.0659 41.7691 67.0224 41.7469C66.9789 41.7247 66.9312 41.7119 66.8824 41.7094C66.8336 41.7069 66.7848 41.7148 66.7392 41.7324C66.6937 41.75 66.6524 41.7771 66.618 41.8118C66.5836 41.8465 66.5569 41.8881 66.5397 41.9338C66.5225 41.9795 66.5151 42.0284 66.5181 42.0771Z" fill="#191919"/>
<path d="M71.5 40.7978C69.2166 45.5727 70.3917 53.3214 71.3952 55.3977C71.5681 55.7776 72.1916 55.5707 72.1563 55.1894C72.0187 52.9061 70.5306 47.129 72.1916 40.9707C72.3292 40.5554 71.6729 40.3485 71.5 40.7978Z" fill="#191919"/>
<path d="M65.1687 55.2935C66.5843 54.447 68.1906 53.9712 69.8389 53.9102C70.2542 53.8408 70.4271 53.2185 69.9424 53.115C69.0271 52.9834 68.0942 53.0546 67.2095 53.3235C66.3248 53.5925 65.51 54.0526 64.8229 54.6713C64.4417 54.9477 64.7862 55.5686 65.1687 55.2935Z" fill="#191919"/>
<path d="M76.6195 50.4205C74.044 53.3471 76.2042 60.0726 71.3952 61.0761C71.0494 61.1442 71.1188 61.7678 71.5 61.7311C71.8419 61.6878 72.178 61.607 72.5022 61.49C72.5566 64.582 73.0222 67.6529 73.8868 70.6221C74.0244 70.9692 74.6479 70.7963 74.6126 70.4151C74.475 68.9269 73.5056 62.7345 73.3681 61.0748C76.3365 59.2408 76.1492 54.2169 77.3465 50.9039C77.3771 50.8098 77.3761 50.7083 77.3436 50.6148C77.3111 50.5214 77.2488 50.4411 77.1664 50.3864C77.084 50.3316 76.986 50.3053 76.8872 50.3114C76.7885 50.3176 76.6944 50.3559 76.6195 50.4205Z" fill="#191919"/>
<path d="M57.4882 33.7393C57.7619 33.3909 57.2117 32.9782 56.9 33.29C51.8145 38.2366 51.2264 46.9206 53.6132 53.2505C53.7861 53.6658 54.4437 53.4928 54.3049 53.0776C53.2333 49.7908 52.1944 40.5003 57.4882 33.7393Z" fill="#68BA00"/>
<path d="M49.7396 30.4531C45.8974 33.5303 45.1376 39.5511 46.5222 43.9802C46.5509 44.0654 46.6107 44.1366 46.6896 44.1798C46.7684 44.2229 46.8607 44.2347 46.9479 44.2129C47.0351 44.1911 47.1109 44.1373 47.1602 44.0621C47.2095 43.9869 47.2287 43.8959 47.2139 43.8073C46.6899 41.4886 46.8327 34.5351 50.4313 30.9693C50.781 30.592 50.0854 30.1767 49.7396 30.4531Z" fill="#68BA00"/>
<path d="M98.241 136.072C97.717 139.6 98.6563 153.715 99.9715 156.76C100.032 156.856 100.122 156.93 100.228 156.971C100.334 157.012 100.45 157.017 100.559 156.986C100.669 156.954 100.765 156.888 100.833 156.798C100.902 156.707 100.939 156.597 100.94 156.483C100.56 153.093 98.934 139.566 98.9681 136.14C98.934 135.76 98.2764 135.657 98.241 136.072Z" fill="#191919"/>
<path d="M115.124 56.4351C115.541 56.8874 116.048 57.2477 116.612 57.4931C117.177 57.7385 117.786 57.8635 118.401 57.8602C119.016 57.8568 119.624 57.7252 120.186 57.4738C120.747 57.2223 121.25 56.8565 121.662 56.3997C121.974 55.9504 121.386 55.5351 120.971 55.7081C120.194 56.3174 119.245 56.6684 118.259 56.7119C117.272 56.7553 116.297 56.4891 115.469 55.9504C115.405 55.9165 115.33 55.9072 115.259 55.924C115.189 55.9409 115.127 55.9828 115.084 56.042C115.042 56.1013 115.023 56.1738 115.031 56.246C115.038 56.3183 115.071 56.3855 115.124 56.4351Z" fill="#191919"/>
<path d="M117.442 54.2213C120.515 55.5759 119.483 47.7172 118.752 46.4714C118.708 46.3986 118.643 46.3401 118.567 46.3032C118.49 46.2663 118.404 46.2525 118.32 46.2634C118.235 46.2744 118.156 46.3097 118.091 46.365C118.026 46.4203 117.979 46.4932 117.955 46.5749C117.887 47.0989 118.786 53.7026 117.714 53.5297C117.338 53.4615 117.03 54.0406 117.442 54.2213Z" fill="#191919"/>
<path d="M121.559 48.1308C121.491 48.7985 121.586 49.4727 121.835 50.0958C121.892 50.154 121.961 50.1984 122.038 50.2253C122.114 50.2523 122.196 50.2611 122.276 50.2511C122.357 50.241 122.434 50.2124 122.502 50.1675C122.569 50.1226 122.625 50.0626 122.666 49.9923C122.787 49.3243 122.751 48.6374 122.562 47.9854C122.424 47.4063 121.621 47.5766 121.559 48.1308Z" fill="#191919"/>
<path d="M113.153 48.132C112.929 48.8383 112.905 49.5927 113.083 50.3118C113.131 50.3821 113.196 50.4395 113.271 50.4792C113.347 50.5189 113.43 50.5397 113.516 50.5397C113.601 50.5397 113.685 50.5189 113.76 50.4792C113.835 50.4395 113.9 50.3821 113.948 50.3118C114.122 49.6459 114.192 48.9569 114.155 48.2695C114.121 47.7167 113.233 47.5451 113.153 48.132Z" fill="#191919"/>
<path d="M112.08 47.0253C112.772 46.0559 114.328 46.0559 114.778 45.8829C115.089 45.7795 115.263 45.2607 114.882 45.0878C114.249 44.9201 113.579 44.9532 112.966 45.1825C112.353 45.4117 111.825 45.8259 111.458 46.3676C111.11 46.817 111.665 47.4405 112.08 47.0253Z" fill="#191919"/>
<path d="M121.04 45.5024C122.389 45.64 122.908 46.8517 123.324 47.0246C123.634 47.1556 124.085 46.9893 124.049 46.6094C123.946 45.3295 122.251 44.7413 121.178 44.6719C121.077 44.6724 120.98 44.7086 120.903 44.774C120.826 44.8394 120.775 44.9297 120.759 45.0291C120.742 45.1286 120.762 45.2306 120.813 45.3172C120.865 45.4038 120.945 45.4694 121.04 45.5024Z" fill="#191919"/>
<path d="M122.597 29.8656C120.903 29.0678 113.878 29.0678 112.351 29.7228C99.3087 35.0505 102.214 46.4672 102.25 46.5707C102.571 47.7193 103.219 48.7497 104.116 49.5361C105.013 50.3225 106.119 50.8311 107.3 50.9998C107.741 53.493 108.881 55.8098 110.586 57.6808C117.334 64.9474 129.272 60.4658 129.129 48.7544C130.825 48.478 131.691 46.3676 131.794 44.8113C132.003 41.6735 131.229 38.5486 129.581 35.8704C127.933 33.1921 125.492 31.0934 122.597 29.8656ZM125.883 55.5704C125.183 56.7711 124.198 57.7814 123.016 58.5124C121.834 59.2434 120.49 59.6726 119.103 59.7624C111.872 60.4541 108.378 53.0512 107.479 47.0318C107.513 46.8929 108.274 45.2332 112.841 44.3332C115.401 43.8485 117.753 39.6971 117.65 36.895C117.742 38.8784 120.453 42.9787 124.949 44.5061C125.931 44.8067 126.784 45.428 127.37 46.2707C127.687 49.447 127.175 52.6512 125.883 55.5704Z" fill="#191919"/>
<path d="M120.625 27.9647C121.869 28.2424 123.324 28.7258 123.912 27.0988C124.603 25.1272 125.746 19.3842 115.955 19.0043C113.687 18.8616 111.421 19.3131 109.381 20.3143C107.915 21.074 106.784 22.352 106.209 23.8995C105.633 25.4471 105.654 27.1535 106.267 28.6865C107.064 30.6934 108.551 30.417 110.003 29.4136C114.328 26.5119 119.24 27.6542 120.625 27.9647Z" fill="#191919"/>
<path d="M95.0931 156.793C92.1673 143.056 85.7039 130.322 76.3431 119.851C76.2568 119.769 76.1508 119.71 76.0354 119.681C75.9199 119.652 75.7988 119.653 75.6839 119.685C75.569 119.716 75.4642 119.776 75.3795 119.86C75.2949 119.944 75.2333 120.048 75.2007 120.163C72.0882 128.327 72.2952 138.291 76.6195 146.005C76.9312 146.593 77.7264 146.075 77.4841 145.481C74.0674 137.998 73.5739 129.507 76.1007 121.678C84.8801 131.86 91.149 143.96 94.404 157.004C94.5049 157.419 95.19 157.248 95.0931 156.793Z" fill="#191919"/>
<path d="M73.2291 140.811C70.1153 136.226 60.8444 127.802 42.2319 123.166C41.6778 123.035 40.9861 123.581 41.2285 124.17C45.0541 134.057 51.706 142.6 60.3545 148.732C57.1363 147.873 53.8257 147.409 50.4954 147.349C50.3632 147.352 50.2339 147.389 50.1203 147.457C50.0066 147.524 49.9122 147.62 49.8464 147.735C49.7805 147.849 49.7454 147.979 49.7443 148.111C49.7433 148.244 49.7764 148.374 49.8404 148.49C52.5036 153.265 56.9668 157.52 62.364 158.869C62.888 159.008 63.2286 158.245 62.7439 158.003C58.3731 155.968 54.6147 152.818 51.846 148.871C55.721 148.94 63.505 150.461 63.5744 150.393C63.6792 150.404 63.7848 150.383 63.8775 150.333C63.9702 150.284 64.0458 150.207 64.0943 150.113C64.1428 150.02 64.162 149.914 64.1494 149.809C64.1368 149.705 64.0931 149.607 64.0238 149.527C62.0863 147.66 50.6015 140.983 43.4397 125.242C54.0259 128.529 65.1661 132.854 72.7418 141.19C72.9527 141.505 73.444 141.122 73.2291 140.811Z" fill="#191919"/>
<path d="M78.5229 134.524C85.7528 145.838 86.2715 151.816 87.482 155.42C87.6208 155.835 88.3819 155.8 88.3125 155.317C87.4138 147.775 83.5389 140.233 79.1425 134.179C78.8333 133.826 78.2451 134.131 78.5229 134.524Z" fill="#191919"/>
<path d="M80.387 153.785C80.3632 151.975 80.1879 150.169 79.863 148.388C79.7595 147.939 79.1019 148.076 79.1019 148.492C79.1147 150.265 79.2654 152.035 79.5525 153.785C79.6298 154.269 80.4223 154.303 80.387 153.785Z" fill="#191919"/>
<path d="M70.7729 144.238C70.7559 143.059 70.6 141.921 70.5306 140.779C70.4965 140.536 70.1153 140.502 70.1153 140.779C70.1153 141.958 70.1153 143.096 70.1507 144.238C70.1479 144.281 70.1539 144.324 70.1683 144.364C70.1827 144.404 70.2051 144.441 70.2343 144.472C70.2635 144.503 70.2987 144.528 70.3378 144.545C70.377 144.562 70.4191 144.57 70.4618 144.57C70.5044 144.57 70.5466 144.562 70.5858 144.545C70.6249 144.528 70.6601 144.503 70.6893 144.472C70.7184 144.441 70.7409 144.404 70.7553 144.364C70.7697 144.324 70.7757 144.281 70.7729 144.238Z" fill="#191919"/>
<path d="M63.095 137.458C62.8223 136.43 62.4756 135.423 62.0575 134.445C61.9186 134.133 61.4693 134.377 61.5335 134.653C61.7296 135.662 61.9953 136.656 62.3286 137.628C62.5042 138.15 63.2365 137.94 63.095 137.458Z" fill="#191919"/>
<path d="M73.7833 152.161C72.4149 152.011 71.0343 152.011 69.666 152.161C69.2847 152.195 69.1118 152.783 69.5625 152.887C70.9562 153.123 72.3717 153.204 73.7833 153.129C73.9073 153.122 74.0241 153.069 74.1096 152.979C74.1951 152.889 74.2428 152.769 74.2428 152.645C74.2428 152.521 74.1951 152.401 74.1096 152.311C74.0241 152.221 73.9073 152.167 73.7833 152.161Z" fill="#191919"/>
<path d="M64.7875 142.513C63.797 142.436 62.8052 142.379 61.8125 142.34C61.3972 142.34 61.4326 142.894 61.8125 142.963C62.7819 143.094 63.7775 143.17 64.7875 143.24C65.2381 143.267 65.2381 142.54 64.7875 142.513Z" fill="#191919"/>
<path d="M79.732 155.931C75.7417 150.593 71.1052 145.771 65.9285 141.574C60.8472 137.266 55.3823 133.433 49.602 130.123C49.3256 129.95 49.0479 130.399 49.3256 130.572C51.7224 132.08 54.0648 133.673 56.3485 135.347C55.194 135.577 54.0269 135.739 52.8534 135.832C52.5429 135.866 52.577 136.385 52.8534 136.454C54.0366 136.664 55.2542 136.557 56.3825 136.144C56.4401 136.125 56.4928 136.094 56.5372 136.053C56.5816 136.012 56.6165 135.961 56.6395 135.906C56.6626 135.85 56.6732 135.789 56.6707 135.729C56.6681 135.668 56.6525 135.609 56.6249 135.555C68.3402 144.171 72.2283 149.479 79.1464 156.346C79.4569 156.662 79.9743 156.278 79.732 155.931Z" fill="#191919"/>
<path d="M244.371 152.161C244.16 148.577 244.335 144.981 244.895 141.436C244.917 141.353 244.906 141.266 244.863 141.192C244.821 141.118 244.751 141.064 244.669 141.041C244.587 141.018 244.499 141.029 244.425 141.07C244.351 141.112 244.296 141.181 244.272 141.263C243.312 144.812 243.089 148.521 243.617 152.161C243.68 152.61 244.406 152.644 244.371 152.161Z" fill="#191919"/>
<path d="M274.643 127.972C271.356 129.67 268.23 131.661 265.303 133.922C266.194 132.277 267.324 130.772 268.658 129.459C268.935 129.149 268.588 128.63 268.208 128.872C266.286 130.312 264.908 132.36 264.299 134.683C262.119 136.311 255.305 142.15 254.024 143.367C254.483 140.54 255.649 137.874 257.414 135.618C257.622 135.341 257.31 134.995 257.034 135.238C255.811 136.404 254.835 137.805 254.163 139.356C253.491 140.907 253.138 142.577 253.125 144.267C249.683 147.632 246.513 151.264 243.646 155.13C243.334 155.545 244.061 156.064 244.337 155.683C249.665 148.383 259.387 140.356 259.767 140.045C262.708 140.045 266.237 139.562 268.658 137.867C268.728 137.823 268.78 137.755 268.804 137.676C268.828 137.596 268.823 137.511 268.79 137.435C268.756 137.359 268.696 137.298 268.621 137.263C268.546 137.228 268.461 137.221 268.381 137.243C265.862 138.109 263.284 138.791 260.667 139.284C266.893 133.922 272.567 131.051 275.162 128.976C275.611 128.566 275.16 127.768 274.643 127.972Z" fill="#191919"/>
<path d="M250.633 151.331C253.804 151.52 256.97 150.9 259.836 149.531C260.182 149.358 259.94 148.771 259.56 148.876C256.641 149.722 253.654 150.312 250.633 150.64C250.55 150.652 250.474 150.693 250.418 150.757C250.363 150.82 250.333 150.901 250.333 150.985C250.333 151.07 250.363 151.151 250.418 151.214C250.474 151.278 250.55 151.319 250.633 151.331Z" fill="#191919"/>
<path d="M173.383 12.2564C173.352 12.1657 173.294 12.0869 173.217 12.0311C173.139 11.9752 173.046 11.9452 172.95 11.9452C172.855 11.9452 172.762 11.9752 172.684 12.0311C172.606 12.0869 172.548 12.1657 172.518 12.2564C172.137 13.6057 171.826 41.3515 171.652 47.198C169.647 46.8862 149.615 47.3709 145.19 47.722C145.363 44.9199 144.011 18.378 142.976 12.8157C147.37 12.8838 167.746 13.231 169.719 12.8838C170.341 12.7804 170.134 11.9158 169.58 11.8463C167.469 11.604 146.786 11.604 142.249 11.9498C142.146 11.9524 142.047 11.9931 141.972 12.064C141.897 12.1349 141.851 12.231 141.842 12.334C141.833 12.4369 141.863 12.5394 141.925 12.6218C141.988 12.7041 142.078 12.7606 142.18 12.7804C142.146 18.5928 143.46 45.1269 143.771 48.0338C143.777 48.1634 143.819 48.2888 143.892 48.3963C143.964 48.5039 144.065 48.5894 144.183 48.6435C144.301 48.6975 144.432 48.7182 144.56 48.7031C144.689 48.6879 144.811 48.6377 144.914 48.5578C149.623 48.7752 171.385 48.3783 171.794 47.9696C172.002 48.1425 172.416 48.1071 172.449 47.7613C173.486 41.9396 173.863 13.5729 173.383 12.2564Z" fill="#191919"/>
<path d="M99.7986 36.8548C97.755 36.8024 89.4496 37.4076 87.4138 37.684C87.3138 37.689 87.2159 37.7154 87.1269 37.7613C87.0379 37.8073 86.9597 37.8718 86.8977 37.9505C86.8356 38.0291 86.7911 38.1202 86.7672 38.2175C86.7432 38.3148 86.7404 38.416 86.7588 38.5145C88.1422 48.5819 89.1168 58.8562 89.4915 68.993C89.4924 69.0549 89.5084 69.1156 89.5382 69.1699C89.5679 69.2241 89.6104 69.2703 89.6621 69.3044C89.7137 69.3385 89.7729 69.3594 89.8345 69.3654C89.8961 69.3714 89.9582 69.3623 90.0155 69.3388C91.5608 69.3915 93.1066 69.252 94.6175 68.9236C95.0315 68.8201 94.8939 68.2686 94.5127 68.2319C93.0898 68.14 91.6611 68.2214 90.2578 68.4742C89.9461 58.5798 89.3932 48.7207 88.1474 38.8957C90.0509 38.6874 98.0078 38.411 99.9374 37.8229C100.054 37.7916 100.154 37.7188 100.221 37.6183C100.287 37.5178 100.314 37.3964 100.297 37.2773C100.28 37.1581 100.22 37.0493 100.128 36.9715C100.036 36.8936 99.9189 36.8521 99.7986 36.8548Z" fill="#191919"/>
<path d="M190.092 63.9129C187.994 63.5976 185.861 63.5861 183.76 63.8788C183.484 58.724 182.723 37.24 182.55 36.2378C184.176 36.2732 185.837 36.2732 187.462 36.1684C187.568 36.1684 187.669 36.1265 187.744 36.0519C187.818 35.9774 187.86 35.8762 187.86 35.7708C187.86 35.6653 187.818 35.5642 187.744 35.4897C187.669 35.4151 187.568 35.3732 187.462 35.3732C185.56 35.1662 183.623 35.1662 181.685 35.0614C180.648 35.0274 181.201 35.9955 181.201 36.0308C181.201 36.0662 182.481 59.4169 182.412 64.6059C182.419 64.7875 182.493 64.96 182.622 65.0886C182.75 65.2172 182.923 65.2923 183.104 65.2988C185.387 65.2294 187.705 65.2294 189.954 64.9517C190.507 64.8403 190.714 64.0439 190.092 63.9129Z" fill="#191919"/>
<path d="M206.94 29.7978C202.824 23.2255 193.724 26.0276 190.819 32.1846C189.401 35.5795 189.122 39.3427 190.024 42.9096C190.61 45.6082 192.099 49.1373 195.074 49.9666C195.212 51.2766 195.419 52.6311 195.628 53.9804C196.926 62.5923 206.501 64.3844 210.987 59.1353C213.513 56.886 214.378 53.4616 214.62 50.0019C216.281 49.4137 217.388 46.9575 217.941 45.4693C221.909 34.3016 213.723 27.8223 206.94 29.7978ZM207.182 53.7381C207.009 54.7756 204.169 56.0554 202.027 54.8109C201.544 54.5332 201.959 53.8075 202.478 54.0498C203.174 54.3138 203.934 54.366 204.66 54.1998C205.386 54.0336 206.047 53.6565 206.56 53.1158C206.836 52.804 207.251 53.4263 207.182 53.7381ZM213.271 52.597C212.983 51.9088 212.544 51.2937 211.987 50.7968C211.431 50.3 210.77 49.9339 210.053 49.7255C208.481 49.2854 205.948 50.2901 204.726 50.4866C203.999 49.2749 204.658 47.6492 204.864 46.2304C204.934 45.7471 204.241 45.5047 204.103 46.0235C203.564 47.4573 203.363 48.9963 203.515 50.5207C202.788 50.4172 202.096 50.1054 201.371 49.9967C200.678 49.891 199.97 49.9352 199.296 50.1261C198.622 50.3171 197.996 50.6504 197.462 51.1036C196.978 51.5321 196.639 52.1001 196.492 52.7294C195.725 49.5581 195.341 46.306 195.35 43.0432C197.426 42.7655 205.453 39.9988 206.456 36.3622C206.98 39.1643 212.44 41.6206 214.101 42.0699C214.101 42.3214 213.374 52.2158 213.271 52.597Z" fill="#191919"/>
<path d="M280.144 114.873C275.369 115.358 270.907 119.024 267.239 121.827C264.611 123.834 256.861 129.714 255.449 130.342C248.253 133.486 251.747 124.149 250.121 122.522C243.309 115.569 230.956 148.984 229.64 155.526C229.572 155.803 230.022 155.942 230.091 155.665C233.235 144.594 243.34 121.692 248.841 123.456C250.19 123.873 248.807 128.508 249.429 130.268C252.266 138.605 269.734 121.622 274.407 118.818C282.295 114.112 285.411 119.301 284.474 122.103C282.779 127.224 269.945 135.215 270.186 139.539C270.464 144.517 276.587 141.407 276.794 142.999C277.449 148.431 265.62 156.145 260.604 158.948C259.912 159.328 260.534 160.367 261.227 160.021C266.347 157.494 281.084 148.015 277.797 141.65C277.072 140.197 272.366 142.688 271.812 139.366C271.363 136.669 283.713 128.434 285.829 123.279C287.949 117.986 284.354 114.43 280.144 114.873Z" fill="#191919"/>
<path d="M261.185 89.1273C260.897 86.5335 257.692 76.7766 256.1 74.9793C255.754 74.5981 254.958 75.0134 255.2 75.5033C256.203 77.9255 259.767 87.6863 259.975 90.2408C260.321 94.911 260.078 101.346 257.068 105.187C253.678 109.51 238.976 107.573 230.015 98.2318C229.629 94.6403 229.052 91.072 228.285 87.5422C228.217 87.1623 227.63 87.3352 227.697 87.7151C229.958 101.972 229.701 116.515 226.935 130.683C224.099 131.409 216.8 134.28 206.975 134.073C207.77 129.819 211.264 94.1498 206.697 72.9776C206.594 72.5283 205.936 72.5283 205.971 72.9776C207.751 93.2847 207.634 113.713 205.623 133.999C202.786 133.792 198.773 133.376 196.559 132.961C193.415 125.869 184.761 119.053 184.693 118.985C182.841 114.569 180.655 110.302 178.154 106.219C175.733 102.31 176.844 97.189 177.15 92.6224C177.462 87.7453 177.531 81.8293 174.314 77.7473C173.135 76.2251 171.063 73.3877 164.489 72.9724C162.699 72.9106 160.946 73.4868 159.541 74.5981C153.245 72.4196 147.295 76.0168 144.631 81.7939C141.133 89.3408 144.119 98.2554 141.826 102.585C141.238 103.726 136.568 110.196 135.773 112.791C135.196 114.68 133.884 119.456 135.391 120.713C124.911 129.5 123.208 138.876 122.038 144.204C118.44 160.636 127.643 170.841 133.213 172.19C133.835 172.329 134.354 171.36 133.696 171.084C123.595 166.586 122.176 154.339 123.664 144.653C126.327 127.113 142.004 117.98 143.902 117.08C147.528 115.377 151.407 114.279 155.387 113.829C155.347 114.265 155.359 114.705 155.423 115.139C155.429 115.228 155.467 115.313 155.528 115.378C155.59 115.444 155.672 115.486 155.761 115.498C155.85 115.51 155.94 115.492 156.017 115.446C156.094 115.399 156.153 115.328 156.184 115.243C156.662 113.558 156.84 111.801 156.708 110.053C160.479 112.682 165.46 110.78 166.74 110.019C166.649 111.771 167.032 113.516 167.848 115.069C168.055 115.381 168.643 115.278 168.609 114.862C168.54 114.274 168.435 113.683 168.331 113.098C169.217 113.017 170.108 113.006 170.996 113.064C176.443 114.934 181.463 117.87 185.764 121.701C190.064 125.532 193.558 130.181 196.043 135.377C205.936 156.337 193.828 168.52 191.165 169.973C190.438 170.388 190.958 171.391 191.717 171.253C196.353 170.457 200.747 160.148 200.851 159.594C206.178 159.49 228.078 159.214 228.078 159.214C228.078 159.214 227.905 134.858 227.835 132.505C229.145 129.254 231.641 112.821 230.222 99.4331C240.083 109.5 247.312 108.734 251.394 108.843C261.047 109.054 261.984 96.3271 261.185 89.1273ZM152.141 99.1252C151.812 99.2133 151.467 99.2245 151.132 99.1581C150.798 99.0917 150.483 98.9495 150.212 98.7423C149.942 98.5351 149.722 98.2685 149.571 97.9631C149.419 97.6577 149.34 97.3216 149.339 96.9807C149.415 96.2826 149.734 95.6334 150.24 95.1463C150.745 94.6593 151.406 94.3655 152.107 94.3162C152.084 93.2896 152.303 92.272 152.748 91.3462C153.192 90.4205 153.849 89.6126 154.664 88.9884C155.91 88.0544 157.466 87.6051 158.78 86.7745C159.47 86.411 160.033 85.8448 160.392 85.152C160.75 84.4592 160.888 83.6731 160.787 82.8996C161.295 85.4423 164.621 86.4235 166.218 87.3287C167.021 87.8811 167.743 88.5424 168.364 89.2937C169.828 90.9475 170.704 93.0398 170.853 95.2437C171.023 95.1729 171.208 95.1485 171.391 95.1729C171.573 95.1973 171.745 95.2696 171.891 95.3825C173.987 97.0554 173.269 99.9217 171.511 100.156C171.2 100.191 170.887 100.191 170.577 100.156C170.368 102.163 167.671 109.359 162.827 109.844C161.378 110.022 159.907 109.868 158.527 109.392C157.147 108.916 155.894 108.131 154.863 107.097C153.832 106.063 153.051 104.808 152.58 103.426C152.108 102.045 151.958 100.574 152.141 99.1252Z" fill="#191919"/>
<path d="M257.38 158.836C257.278 158.689 257.136 158.574 256.97 158.506C256.804 158.439 256.622 158.421 256.446 158.456C251.913 158.11 210.157 158.595 200.886 158.906C200.79 158.906 200.697 158.944 200.629 159.012C200.561 159.08 200.522 159.173 200.522 159.269C200.522 159.366 200.561 159.458 200.629 159.526C200.697 159.594 200.79 159.633 200.886 159.633C210.157 159.943 251.74 160.394 256.168 160.082C260.699 165.929 281.18 191.979 283.567 194.469C252.535 195.024 48.9077 193.501 40.0167 193.814C44.3751 188.002 66.8272 159.01 66.8272 158.942C75.1299 159.392 114.811 159.597 116.957 159.046C117.579 158.873 117.649 157.835 116.957 157.736C114.777 157.39 74.7147 158.082 66.1709 158.048C65.3403 158.048 42.1271 187.904 37.8015 193.993C37.7674 194.027 36.9723 194.995 38.3897 195.064C61.4313 195.929 268.207 196.586 284.847 196.243C285.47 196.174 286.577 195.552 286.058 194.79C282.427 188.969 261.542 164.129 257.38 158.836Z" fill="#68BA00"/>
</g>
<defs>
<clipPath id="clip0_200_2129">
<rect width="324" height="208" fill="white"/>
</clipPath>
</defs>
</svg>
