<svg width="16" height="16" viewBox="0 0 16 16" fill="none" xmlns="http://www.w3.org/2000/svg">
<g id="Status icons">
<path id="Exclude" fill-rule="evenodd" clip-rule="evenodd" d="M3.90992 1.88617C5.11615 1.08019 6.5343 0.650002 7.98503 0.650002C9.92924 0.65373 11.7928 1.42772 13.1675 2.80249C14.5423 4.17726 15.3163 6.04078 15.32 7.985C15.32 9.43573 14.8898 10.8539 14.0839 12.0601C13.2779 13.2663 12.1323 14.2065 10.792 14.7617C9.45171 15.3168 7.97689 15.4621 6.55404 15.1791C5.13119 14.896 3.82422 14.1974 2.7984 13.1716C1.77258 12.1458 1.07399 10.8388 0.790968 9.41599C0.507945 7.99314 0.653203 6.51831 1.20837 5.17802C1.76354 3.83772 2.70369 2.69215 3.90992 1.88617ZM11.4778 6.70056C11.7032 6.48546 11.7116 6.12831 11.4965 5.90284C11.2814 5.67737 10.9243 5.66896 10.6988 5.88406L6.94858 9.4618L5.27157 7.8592C5.04629 7.64391 4.68913 7.65201 4.47384 7.8773C4.25855 8.10258 4.26665 8.45974 4.49194 8.67503L6.55843 10.6498C6.77639 10.8581 7.11959 10.8583 7.33772 10.6502L11.4778 6.70056Z" fill="#027A48"/>
</g>
</svg>
