<svg width="16" height="16" viewBox="0 0 16 16" fill="none" xmlns="http://www.w3.org/2000/svg">
<g id="Status icons">
<path id="Vector" d="M15.3333 8C15.3333 12.0501 12.05 15.3333 7.99996 15.3333C3.94987 15.3333 0.666626 12.0501 0.666626 8C0.666626 3.94991 3.94987 0.666664 7.99996 0.666664C12.05 0.666664 15.3333 3.94991 15.3333 8ZM2.57329 8C2.57329 10.9971 5.00289 13.4267 7.99996 13.4267C10.997 13.4267 13.4266 10.9971 13.4266 8C13.4266 5.00293 10.997 2.57333 7.99996 2.57333C5.00289 2.57333 2.57329 5.00293 2.57329 8Z" fill="#175CD3"/>
<path id="Vector_2" d="M8 12C9.06087 12 10.0783 11.5786 10.8284 10.8284C11.5786 10.0783 12 9.06087 12 8C12 6.93913 11.5786 5.92172 10.8284 5.17157C10.0783 4.42143 9.06087 4 8 4L8 8L8 12Z" fill="#175CD3"/>
</g>
</svg>
